# xmcd
#
# Track frame offsets: 
#        182
#        21965
#        44010
#        58565
#        75955
#        90470
#        110960
#        125582
#        139102
#        158902
#        172985
#        187455
#        207712
#
# Disc length: 2795 seconds
#
# Revision: 0
# Processed by: cddbd v1.5.2PL0 Copyright (c) Steve Scherf et al.
# Submitted via: ExactAudioCopy v0.99pb4
#
DISCID=be0ae90d
DTITLE=Cowboy Junkies - Black Eyed Man
DYEAR=1986
DGENRE=Pop-Folk
TTITLE0=Southern Rain
TTITLE1=Oregon Hill
TTITLE2=This Street, That Man, This Life
TTITLE3=A Horse In The Country
TTITLE4=If You Were The Woman And I Was The Man
TTITLE5=Murder, Tonight, In The Trailer Park
TTITLE6=Black Eyed Man
TTITLE7=Winter's Song
TTITLE8=The Last Spike
TTITLE9=Cowboy Junkies Lament
TTITLE10=Townes' Blues
TTITLE11=To Live Is To Fly
TTITLE12=Extro (No Name)
EXTD=
EXTT0=
EXTT1=
EXTT2=
EXTT3=
EXTT4=
EXTT5=
EXTT6=
EXTT7=
EXTT8=
EXTT9=
EXTT10=
EXTT11=
EXTT12=
PLAYORDER=
